<mxfile host="app.diagrams.net" modified="2023-12-07T17:36:50.711Z" agent="Mozilla/5.0 (Macintosh; Intel Mac OS X 10_15_7) AppleWebKit/537.36 (KHTML, like Gecko) Chrome/119.0.0.0 Safari/537.36" etag="TF4IAb2Xd8hJWS4GwF6z" version="22.1.7" type="google">
  <diagram name="Page-1" id="21kfyhoEaBZoShSMe2v0">
    <mxGraphModel grid="1" page="1" gridSize="10" guides="1" tooltips="1" connect="1" arrows="1" fold="1" pageScale="1" pageWidth="850" pageHeight="1100" math="0" shadow="0">
      <root>
        <mxCell id="0" />
        <mxCell id="1" parent="0" />
        <mxCell id="N0OJUPgVp3LlAyUghiyL-50" value="" style="rounded=0;whiteSpace=wrap;html=1;" vertex="1" parent="1">
          <mxGeometry x="50" y="160" width="560" height="390" as="geometry" />
        </mxCell>
        <mxCell id="N0OJUPgVp3LlAyUghiyL-2" value="" style="rounded=1;whiteSpace=wrap;html=1;movable=0;resizable=0;rotatable=0;deletable=0;editable=0;locked=1;connectable=0;" vertex="1" parent="1">
          <mxGeometry x="180" y="230" width="340" height="240" as="geometry" />
        </mxCell>
        <mxCell id="N0OJUPgVp3LlAyUghiyL-16" style="edgeStyle=orthogonalEdgeStyle;rounded=0;orthogonalLoop=1;jettySize=auto;html=1;exitX=1;exitY=0.5;exitDx=0;exitDy=0;entryX=0;entryY=0.5;entryDx=0;entryDy=0;movable=0;resizable=0;rotatable=0;deletable=0;editable=0;locked=1;connectable=0;" edge="1" parent="1" source="N0OJUPgVp3LlAyUghiyL-3" target="N0OJUPgVp3LlAyUghiyL-4">
          <mxGeometry relative="1" as="geometry" />
        </mxCell>
        <mxCell id="N0OJUPgVp3LlAyUghiyL-3" value="" style="ellipse;whiteSpace=wrap;html=1;aspect=fixed;fillColor=#dae8fc;strokeColor=#6c8ebf;movable=0;resizable=0;rotatable=0;deletable=0;editable=0;locked=1;connectable=0;" vertex="1" parent="1">
          <mxGeometry x="242" y="240" width="30" height="30" as="geometry" />
        </mxCell>
        <mxCell id="N0OJUPgVp3LlAyUghiyL-41" style="edgeStyle=orthogonalEdgeStyle;rounded=0;orthogonalLoop=1;jettySize=auto;html=1;exitX=1;exitY=0.5;exitDx=0;exitDy=0;entryX=0.5;entryY=0;entryDx=0;entryDy=0;movable=0;resizable=0;rotatable=0;deletable=0;editable=0;locked=1;connectable=0;" edge="1" parent="1" source="N0OJUPgVp3LlAyUghiyL-4" target="N0OJUPgVp3LlAyUghiyL-36">
          <mxGeometry relative="1" as="geometry" />
        </mxCell>
        <mxCell id="N0OJUPgVp3LlAyUghiyL-4" value="&lt;font style=&quot;font-size: 16px;&quot;&gt;&lt;b&gt;+&lt;/b&gt;&lt;/font&gt;" style="ellipse;whiteSpace=wrap;html=1;aspect=fixed;fillColor=#dae8fc;strokeColor=#6c8ebf;movable=0;resizable=0;rotatable=0;deletable=0;editable=0;locked=1;connectable=0;" vertex="1" parent="1">
          <mxGeometry x="390" y="240" width="30" height="30" as="geometry" />
        </mxCell>
        <mxCell id="N0OJUPgVp3LlAyUghiyL-22" style="edgeStyle=orthogonalEdgeStyle;rounded=0;orthogonalLoop=1;jettySize=auto;html=1;entryX=0.5;entryY=1;entryDx=0;entryDy=0;movable=0;resizable=0;rotatable=0;deletable=0;editable=0;locked=1;connectable=0;" edge="1" parent="1" source="N0OJUPgVp3LlAyUghiyL-7" target="N0OJUPgVp3LlAyUghiyL-3">
          <mxGeometry relative="1" as="geometry" />
        </mxCell>
        <mxCell id="N0OJUPgVp3LlAyUghiyL-7" value="&lt;img style=&quot;border: 0px; vertical-align: -0.338ex; display: inline-block; color: rgb(32, 33, 34); font-family: sans-serif; font-size: 14px; background-color: rgb(248, 249, 250); width: 1.33ex; height: 1.676ex;&quot; alt=&quot;\sigma&quot; aria-hidden=&quot;true&quot; class=&quot;mwe-math-fallback-image-inline mw-invert&quot; src=&quot;https://wikimedia.org/api/rest_v1/media/math/render/svg/59f59b7c3e6fdb1d0365a494b81fb9a696138c36&quot;&gt;" style="rounded=0;whiteSpace=wrap;html=1;fillColor=#dae8fc;strokeColor=#6c8ebf;movable=0;resizable=0;rotatable=0;deletable=0;editable=0;locked=1;connectable=0;" vertex="1" parent="1">
          <mxGeometry x="227" y="380" width="60" height="30" as="geometry" />
        </mxCell>
        <mxCell id="N0OJUPgVp3LlAyUghiyL-38" style="edgeStyle=orthogonalEdgeStyle;rounded=0;orthogonalLoop=1;jettySize=auto;html=1;exitX=0.5;exitY=0;exitDx=0;exitDy=0;entryX=0;entryY=0.5;entryDx=0;entryDy=0;movable=0;resizable=0;rotatable=0;deletable=0;editable=0;locked=1;connectable=0;" edge="1" parent="1" source="N0OJUPgVp3LlAyUghiyL-8" target="N0OJUPgVp3LlAyUghiyL-30">
          <mxGeometry relative="1" as="geometry" />
        </mxCell>
        <mxCell id="N0OJUPgVp3LlAyUghiyL-8" value="&lt;img style=&quot;border: 0px; vertical-align: -0.338ex; display: inline-block; color: rgb(32, 33, 34); font-family: sans-serif; font-size: 14px; background-color: rgb(248, 249, 250); width: 1.33ex; height: 1.676ex;&quot; alt=&quot;\sigma&quot; aria-hidden=&quot;true&quot; class=&quot;mwe-math-fallback-image-inline mw-invert&quot; src=&quot;https://wikimedia.org/api/rest_v1/media/math/render/svg/59f59b7c3e6fdb1d0365a494b81fb9a696138c36&quot;&gt;" style="rounded=0;whiteSpace=wrap;html=1;fillColor=#dae8fc;strokeColor=#6c8ebf;movable=0;resizable=0;rotatable=0;deletable=0;editable=0;locked=1;connectable=0;" vertex="1" parent="1">
          <mxGeometry x="300" y="380" width="60" height="30" as="geometry" />
        </mxCell>
        <mxCell id="N0OJUPgVp3LlAyUghiyL-39" style="edgeStyle=orthogonalEdgeStyle;rounded=0;orthogonalLoop=1;jettySize=auto;html=1;exitX=0.5;exitY=0;exitDx=0;exitDy=0;entryX=0.5;entryY=1;entryDx=0;entryDy=0;movable=0;resizable=0;rotatable=0;deletable=0;editable=0;locked=1;connectable=0;" edge="1" parent="1" source="N0OJUPgVp3LlAyUghiyL-9" target="N0OJUPgVp3LlAyUghiyL-30">
          <mxGeometry relative="1" as="geometry" />
        </mxCell>
        <mxCell id="N0OJUPgVp3LlAyUghiyL-9" value="tanh" style="rounded=0;whiteSpace=wrap;html=1;fillColor=#dae8fc;strokeColor=#6c8ebf;movable=0;resizable=0;rotatable=0;deletable=0;editable=0;locked=1;connectable=0;" vertex="1" parent="1">
          <mxGeometry x="375" y="380" width="60" height="30" as="geometry" />
        </mxCell>
        <mxCell id="N0OJUPgVp3LlAyUghiyL-42" style="edgeStyle=orthogonalEdgeStyle;rounded=0;orthogonalLoop=1;jettySize=auto;html=1;exitX=0.5;exitY=0;exitDx=0;exitDy=0;entryX=0.5;entryY=1;entryDx=0;entryDy=0;movable=0;resizable=0;rotatable=0;deletable=0;editable=0;locked=1;connectable=0;" edge="1" parent="1" source="N0OJUPgVp3LlAyUghiyL-10" target="N0OJUPgVp3LlAyUghiyL-33">
          <mxGeometry relative="1" as="geometry" />
        </mxCell>
        <mxCell id="N0OJUPgVp3LlAyUghiyL-10" value="&lt;img style=&quot;border: 0px; vertical-align: -0.338ex; display: inline-block; color: rgb(32, 33, 34); font-family: sans-serif; font-size: 14px; background-color: rgb(248, 249, 250); width: 1.33ex; height: 1.676ex;&quot; alt=&quot;\sigma&quot; aria-hidden=&quot;true&quot; class=&quot;mwe-math-fallback-image-inline mw-invert&quot; src=&quot;https://wikimedia.org/api/rest_v1/media/math/render/svg/59f59b7c3e6fdb1d0365a494b81fb9a696138c36&quot;&gt;" style="rounded=0;whiteSpace=wrap;html=1;fillColor=#dae8fc;strokeColor=#6c8ebf;movable=0;resizable=0;rotatable=0;deletable=0;editable=0;locked=1;connectable=0;" vertex="1" parent="1">
          <mxGeometry x="450" y="380" width="60" height="30" as="geometry" />
        </mxCell>
        <mxCell id="N0OJUPgVp3LlAyUghiyL-13" style="edgeStyle=orthogonalEdgeStyle;rounded=0;orthogonalLoop=1;jettySize=auto;html=1;entryX=0;entryY=0.5;entryDx=0;entryDy=0;movable=0;resizable=0;rotatable=0;deletable=0;editable=0;locked=1;connectable=0;" edge="1" parent="1" source="N0OJUPgVp3LlAyUghiyL-11" target="N0OJUPgVp3LlAyUghiyL-3">
          <mxGeometry relative="1" as="geometry" />
        </mxCell>
        <mxCell id="N0OJUPgVp3LlAyUghiyL-11" value="Memory&lt;br&gt;C&lt;sub&gt;t-1&lt;/sub&gt;" style="text;html=1;align=center;verticalAlign=middle;resizable=0;points=[];autosize=1;strokeColor=none;fillColor=none;movable=0;rotatable=0;deletable=0;editable=0;locked=1;connectable=0;" vertex="1" parent="1">
          <mxGeometry x="70" y="235" width="70" height="40" as="geometry" />
        </mxCell>
        <mxCell id="N0OJUPgVp3LlAyUghiyL-14" value="" style="ellipse;whiteSpace=wrap;html=1;aspect=fixed;fillColor=#dae8fc;strokeColor=#000000;movable=0;resizable=0;rotatable=0;deletable=0;editable=0;locked=1;connectable=0;" vertex="1" parent="1">
          <mxGeometry x="250.5" y="248.5" width="13" height="13" as="geometry" />
        </mxCell>
        <mxCell id="N0OJUPgVp3LlAyUghiyL-15" value="" style="ellipse;whiteSpace=wrap;html=1;aspect=fixed;strokeWidth=0;fillColor=#000000;strokeColor=#6c8ebf;movable=0;resizable=0;rotatable=0;deletable=0;editable=0;locked=1;connectable=0;" vertex="1" parent="1">
          <mxGeometry x="254.5" y="252.5" width="5" height="5" as="geometry" />
        </mxCell>
        <mxCell id="N0OJUPgVp3LlAyUghiyL-17" value="C&lt;sub&gt;t&lt;/sub&gt;" style="text;html=1;align=center;verticalAlign=middle;resizable=0;points=[];autosize=1;strokeColor=none;fillColor=none;movable=0;rotatable=0;deletable=0;editable=0;locked=1;connectable=0;" vertex="1" parent="1">
          <mxGeometry x="551" y="241" width="30" height="30" as="geometry" />
        </mxCell>
        <mxCell id="N0OJUPgVp3LlAyUghiyL-18" style="edgeStyle=orthogonalEdgeStyle;rounded=0;orthogonalLoop=1;jettySize=auto;html=1;exitX=1;exitY=0.5;exitDx=0;exitDy=0;entryX=0;entryY=0.45;entryDx=0;entryDy=0;entryPerimeter=0;movable=0;resizable=0;rotatable=0;deletable=0;editable=0;locked=1;connectable=0;" edge="1" parent="1" source="N0OJUPgVp3LlAyUghiyL-4" target="N0OJUPgVp3LlAyUghiyL-17">
          <mxGeometry relative="1" as="geometry" />
        </mxCell>
        <mxCell id="N0OJUPgVp3LlAyUghiyL-23" style="edgeStyle=orthogonalEdgeStyle;rounded=0;orthogonalLoop=1;jettySize=auto;html=1;entryX=0.5;entryY=1;entryDx=0;entryDy=0;movable=0;resizable=0;rotatable=0;deletable=0;editable=0;locked=1;connectable=0;" edge="1" parent="1" source="N0OJUPgVp3LlAyUghiyL-19" target="N0OJUPgVp3LlAyUghiyL-7">
          <mxGeometry relative="1" as="geometry">
            <Array as="points">
              <mxPoint x="257" y="435" />
            </Array>
          </mxGeometry>
        </mxCell>
        <mxCell id="N0OJUPgVp3LlAyUghiyL-19" value="Hidden state&lt;br&gt;H&lt;sub&gt;t-1&lt;/sub&gt;" style="text;html=1;align=center;verticalAlign=middle;resizable=0;points=[];autosize=1;strokeColor=none;fillColor=none;movable=0;rotatable=0;deletable=0;editable=0;locked=1;connectable=0;" vertex="1" parent="1">
          <mxGeometry x="60" y="415" width="90" height="40" as="geometry" />
        </mxCell>
        <mxCell id="N0OJUPgVp3LlAyUghiyL-20" value="H&lt;sub&gt;t&lt;/sub&gt;" style="text;html=1;align=center;verticalAlign=middle;resizable=0;points=[];autosize=1;strokeColor=none;fillColor=none;movable=0;rotatable=0;deletable=0;editable=0;locked=1;connectable=0;" vertex="1" parent="1">
          <mxGeometry x="551" y="420" width="30" height="30" as="geometry" />
        </mxCell>
        <mxCell id="N0OJUPgVp3LlAyUghiyL-26" style="edgeStyle=orthogonalEdgeStyle;rounded=0;orthogonalLoop=1;jettySize=auto;html=1;entryX=0.5;entryY=1;entryDx=0;entryDy=0;exitX=0.562;exitY=-0.085;exitDx=0;exitDy=0;exitPerimeter=0;movable=0;resizable=0;rotatable=0;deletable=0;editable=0;locked=1;connectable=0;" edge="1" parent="1" target="N0OJUPgVp3LlAyUghiyL-7">
          <mxGeometry relative="1" as="geometry">
            <mxPoint x="218.10000000000002" y="481.5999999999999" as="sourcePoint" />
            <mxPoint x="257.5" y="415" as="targetPoint" />
            <Array as="points">
              <mxPoint x="218" y="435" />
              <mxPoint x="257" y="435" />
            </Array>
          </mxGeometry>
        </mxCell>
        <mxCell id="N0OJUPgVp3LlAyUghiyL-21" value="Input&lt;br&gt;X&lt;sub&gt;t-1&lt;/sub&gt;" style="text;html=1;align=center;verticalAlign=middle;resizable=0;points=[];autosize=1;strokeColor=none;fillColor=none;movable=0;rotatable=0;deletable=0;editable=0;locked=1;connectable=0;" vertex="1" parent="1">
          <mxGeometry x="192" y="480" width="50" height="40" as="geometry" />
        </mxCell>
        <mxCell id="N0OJUPgVp3LlAyUghiyL-27" value="" style="endArrow=classic;html=1;rounded=0;entryX=0.5;entryY=1;entryDx=0;entryDy=0;movable=0;resizable=0;rotatable=0;deletable=0;editable=0;locked=1;connectable=0;" edge="1" parent="1" target="N0OJUPgVp3LlAyUghiyL-8">
          <mxGeometry width="50" height="50" relative="1" as="geometry">
            <mxPoint x="250" y="435" as="sourcePoint" />
            <mxPoint x="329.5" y="415" as="targetPoint" />
            <Array as="points">
              <mxPoint x="329.5" y="435" />
            </Array>
          </mxGeometry>
        </mxCell>
        <mxCell id="N0OJUPgVp3LlAyUghiyL-28" value="" style="endArrow=classic;html=1;rounded=0;entryX=0.5;entryY=1;entryDx=0;entryDy=0;movable=0;resizable=0;rotatable=0;deletable=0;editable=0;locked=1;connectable=0;" edge="1" parent="1">
          <mxGeometry width="50" height="50" relative="1" as="geometry">
            <mxPoint x="330" y="435" as="sourcePoint" />
            <mxPoint x="410" y="410" as="targetPoint" />
            <Array as="points">
              <mxPoint x="409.5" y="435" />
            </Array>
          </mxGeometry>
        </mxCell>
        <mxCell id="N0OJUPgVp3LlAyUghiyL-29" value="" style="endArrow=classic;html=1;rounded=0;entryX=0.5;entryY=1;entryDx=0;entryDy=0;movable=0;resizable=0;rotatable=0;deletable=0;editable=0;locked=1;connectable=0;" edge="1" parent="1">
          <mxGeometry width="50" height="50" relative="1" as="geometry">
            <mxPoint x="400" y="435" as="sourcePoint" />
            <mxPoint x="480" y="410" as="targetPoint" />
            <Array as="points">
              <mxPoint x="479.5" y="435" />
            </Array>
          </mxGeometry>
        </mxCell>
        <mxCell id="N0OJUPgVp3LlAyUghiyL-40" style="edgeStyle=orthogonalEdgeStyle;rounded=0;orthogonalLoop=1;jettySize=auto;html=1;exitX=0.5;exitY=0;exitDx=0;exitDy=0;entryX=0.5;entryY=1;entryDx=0;entryDy=0;movable=0;resizable=0;rotatable=0;deletable=0;editable=0;locked=1;connectable=0;" edge="1" parent="1" source="N0OJUPgVp3LlAyUghiyL-30" target="N0OJUPgVp3LlAyUghiyL-4">
          <mxGeometry relative="1" as="geometry" />
        </mxCell>
        <mxCell id="N0OJUPgVp3LlAyUghiyL-30" value="" style="ellipse;whiteSpace=wrap;html=1;aspect=fixed;fillColor=#dae8fc;strokeColor=#6c8ebf;movable=0;resizable=0;rotatable=0;deletable=0;editable=0;locked=1;connectable=0;" vertex="1" parent="1">
          <mxGeometry x="390" y="320" width="30" height="30" as="geometry" />
        </mxCell>
        <mxCell id="N0OJUPgVp3LlAyUghiyL-31" value="" style="ellipse;whiteSpace=wrap;html=1;aspect=fixed;fillColor=#dae8fc;strokeColor=#000000;movable=0;resizable=0;rotatable=0;deletable=0;editable=0;locked=1;connectable=0;" vertex="1" parent="1">
          <mxGeometry x="398.5" y="328.5" width="13" height="13" as="geometry" />
        </mxCell>
        <mxCell id="N0OJUPgVp3LlAyUghiyL-32" value="" style="ellipse;whiteSpace=wrap;html=1;aspect=fixed;strokeWidth=0;fillColor=#000000;strokeColor=#6c8ebf;movable=0;resizable=0;rotatable=0;deletable=0;editable=0;locked=1;connectable=0;" vertex="1" parent="1">
          <mxGeometry x="402.5" y="332.5" width="5" height="5" as="geometry" />
        </mxCell>
        <mxCell id="N0OJUPgVp3LlAyUghiyL-33" value="" style="ellipse;whiteSpace=wrap;html=1;aspect=fixed;fillColor=#dae8fc;strokeColor=#6c8ebf;movable=0;resizable=0;rotatable=0;deletable=0;editable=0;locked=1;connectable=0;" vertex="1" parent="1">
          <mxGeometry x="465" y="320" width="30" height="30" as="geometry" />
        </mxCell>
        <mxCell id="N0OJUPgVp3LlAyUghiyL-34" value="" style="ellipse;whiteSpace=wrap;html=1;aspect=fixed;fillColor=#dae8fc;strokeColor=#000000;movable=0;resizable=0;rotatable=0;deletable=0;editable=0;locked=1;connectable=0;" vertex="1" parent="1">
          <mxGeometry x="473.5" y="328.5" width="13" height="13" as="geometry" />
        </mxCell>
        <mxCell id="N0OJUPgVp3LlAyUghiyL-35" value="" style="ellipse;whiteSpace=wrap;html=1;aspect=fixed;strokeWidth=0;fillColor=#000000;strokeColor=#6c8ebf;movable=0;resizable=0;rotatable=0;deletable=0;editable=0;locked=1;connectable=0;" vertex="1" parent="1">
          <mxGeometry x="477.5" y="332.5" width="5" height="5" as="geometry" />
        </mxCell>
        <mxCell id="N0OJUPgVp3LlAyUghiyL-43" style="edgeStyle=orthogonalEdgeStyle;rounded=0;orthogonalLoop=1;jettySize=auto;html=1;exitX=0.5;exitY=1;exitDx=0;exitDy=0;entryX=0.5;entryY=0;entryDx=0;entryDy=0;movable=0;resizable=0;rotatable=0;deletable=0;editable=0;locked=1;connectable=0;" edge="1" parent="1" source="N0OJUPgVp3LlAyUghiyL-36" target="N0OJUPgVp3LlAyUghiyL-33">
          <mxGeometry relative="1" as="geometry" />
        </mxCell>
        <mxCell id="N0OJUPgVp3LlAyUghiyL-36" value="tanh" style="ellipse;whiteSpace=wrap;html=1;movable=0;resizable=0;rotatable=0;deletable=0;editable=0;locked=1;connectable=0;" vertex="1" parent="1">
          <mxGeometry x="455" y="280" width="50" height="20" as="geometry" />
        </mxCell>
        <mxCell id="N0OJUPgVp3LlAyUghiyL-44" style="edgeStyle=orthogonalEdgeStyle;rounded=0;orthogonalLoop=1;jettySize=auto;html=1;exitX=1;exitY=0.5;exitDx=0;exitDy=0;entryX=0.487;entryY=-0.108;entryDx=0;entryDy=0;entryPerimeter=0;movable=0;resizable=0;rotatable=0;deletable=0;editable=0;locked=1;connectable=0;" edge="1" parent="1" source="N0OJUPgVp3LlAyUghiyL-33" target="N0OJUPgVp3LlAyUghiyL-20">
          <mxGeometry relative="1" as="geometry" />
        </mxCell>
        <mxCell id="N0OJUPgVp3LlAyUghiyL-45" value="Forget gate&lt;br&gt;F&lt;sub&gt;t&lt;/sub&gt;" style="text;html=1;strokeColor=none;fillColor=none;align=center;verticalAlign=middle;whiteSpace=wrap;rounded=0;movable=0;resizable=0;rotatable=0;deletable=0;editable=0;locked=1;connectable=0;" vertex="1" parent="1">
          <mxGeometry x="182" y="341.5" width="60" height="30" as="geometry" />
        </mxCell>
        <mxCell id="N0OJUPgVp3LlAyUghiyL-46" value="Input&lt;br&gt;gate&lt;br&gt;I&lt;sub&gt;t&lt;/sub&gt;" style="text;html=1;strokeColor=none;fillColor=none;align=center;verticalAlign=middle;whiteSpace=wrap;rounded=0;movable=0;resizable=0;rotatable=0;deletable=0;editable=0;locked=1;connectable=0;" vertex="1" parent="1">
          <mxGeometry x="272" y="332.5" width="60" height="30" as="geometry" />
        </mxCell>
        <mxCell id="N0OJUPgVp3LlAyUghiyL-47" value="&lt;font style=&quot;font-size: 9px;&quot;&gt;Candidate&lt;br&gt;Memory&lt;/font&gt;" style="text;html=1;strokeColor=none;fillColor=none;align=center;verticalAlign=middle;whiteSpace=wrap;rounded=0;movable=0;resizable=0;rotatable=0;deletable=0;editable=0;locked=1;connectable=0;" vertex="1" parent="1">
          <mxGeometry x="332" y="337.5" width="60" height="30" as="geometry" />
        </mxCell>
        <mxCell id="N0OJUPgVp3LlAyUghiyL-48" value="Output&lt;br&gt;gate&lt;br&gt;O&lt;sub&gt;t&lt;/sub&gt;" style="text;html=1;strokeColor=none;fillColor=none;align=center;verticalAlign=middle;whiteSpace=wrap;rounded=0;movable=0;resizable=0;rotatable=0;deletable=0;editable=0;locked=1;connectable=0;" vertex="1" parent="1">
          <mxGeometry x="413.5" y="332.5" width="60" height="30" as="geometry" />
        </mxCell>
      </root>
    </mxGraphModel>
  </diagram>
</mxfile>
